<mxfile host="Electron" agent="Mozilla/5.0 (X11; Linux x86_64) AppleWebKit/537.36 (KHTML, like Gecko) draw.io/26.0.7 Chrome/128.0.6613.186 Electron/32.2.5 Safari/537.36" version="26.0.7">
  <diagram name="Page-1" id="PwEAo-QVOLyVrHQFwe3b">
    <mxGraphModel dx="1434" dy="856" grid="1" gridSize="10" guides="1" tooltips="1" connect="1" arrows="1" fold="1" page="1" pageScale="1" pageWidth="1169" pageHeight="827" math="0" shadow="0">
      <root>
        <mxCell id="0" />
        <mxCell id="1" parent="0" />
        <mxCell id="YAognNZvndZZWg79FhpA-62" value="" style="rounded=0;whiteSpace=wrap;html=1;align=left;spacingTop=0;spacingRight=-12;spacingLeft=15;fillColor=#dae8fc;strokeColor=#6c8ebf;" parent="1" vertex="1">
          <mxGeometry x="480" y="150" width="180" height="80" as="geometry" />
        </mxCell>
        <mxCell id="YAognNZvndZZWg79FhpA-61" value="" style="rounded=0;whiteSpace=wrap;html=1;align=left;spacingTop=0;spacingRight=-12;spacingLeft=15;fillColor=#dae8fc;strokeColor=#6c8ebf;" parent="1" vertex="1">
          <mxGeometry x="480" y="60" width="180" height="80" as="geometry" />
        </mxCell>
        <mxCell id="YAognNZvndZZWg79FhpA-5" value="Operating&amp;nbsp;&lt;div&gt;Systems&lt;/div&gt;" style="rounded=0;whiteSpace=wrap;html=1;align=left;spacingTop=0;spacingRight=-12;spacingLeft=15;fillColor=#dae8fc;strokeColor=#6c8ebf;" parent="1" vertex="1">
          <mxGeometry x="160" y="400" width="500" height="190" as="geometry" />
        </mxCell>
        <mxCell id="YAognNZvndZZWg79FhpA-23" value="Mehal Managed" style="rounded=0;whiteSpace=wrap;html=1;verticalAlign=top;fillColor=#fff2cc;strokeColor=#d6b656;" parent="1" vertex="1">
          <mxGeometry x="240" y="410" width="280" height="170" as="geometry" />
        </mxCell>
        <mxCell id="YAognNZvndZZWg79FhpA-1" value="Workloads" style="rounded=0;whiteSpace=wrap;html=1;align=left;spacingTop=0;spacingRight=-12;spacingLeft=15;fillColor=#dae8fc;strokeColor=#6c8ebf;" parent="1" vertex="1">
          <mxGeometry x="160" y="60" width="310" height="80" as="geometry" />
        </mxCell>
        <mxCell id="YAognNZvndZZWg79FhpA-2" value="User&lt;div&gt;Container&lt;br&gt;&lt;div&gt;Application&lt;/div&gt;&lt;/div&gt;" style="rounded=0;whiteSpace=wrap;html=1;" parent="1" vertex="1">
          <mxGeometry x="540" y="70" width="70" height="60" as="geometry" />
        </mxCell>
        <mxCell id="YAognNZvndZZWg79FhpA-6" value="Extrenally Managed" style="rounded=0;whiteSpace=wrap;html=1;verticalAlign=top;" parent="1" vertex="1">
          <mxGeometry x="530" y="410" width="120" height="170" as="geometry" />
        </mxCell>
        <mxCell id="YAognNZvndZZWg79FhpA-11" value="bootc" style="rounded=0;whiteSpace=wrap;html=1;" parent="1" vertex="1">
          <mxGeometry x="250" y="470" width="260" height="20" as="geometry" />
        </mxCell>
        <mxCell id="YAognNZvndZZWg79FhpA-12" value="Brog" style="rounded=0;whiteSpace=wrap;html=1;fillColor=#ffe6cc;strokeColor=#d79b00;" parent="1" vertex="1">
          <mxGeometry x="250" y="440" width="260" height="20" as="geometry" />
        </mxCell>
        <mxCell id="YAognNZvndZZWg79FhpA-13" value="Ubuntu" style="rounded=0;whiteSpace=wrap;html=1;" parent="1" vertex="1">
          <mxGeometry x="550" y="440" width="80" height="30" as="geometry" />
        </mxCell>
        <mxCell id="YAognNZvndZZWg79FhpA-14" value="Systemd" style="rounded=0;whiteSpace=wrap;html=1;align=center;spacingTop=0;spacingRight=0;spacingLeft=0;fillColor=#e1d5e7;strokeColor=#9673a6;" parent="1" vertex="1">
          <mxGeometry x="160" y="360" width="500" height="30" as="geometry" />
        </mxCell>
        <mxCell id="YAognNZvndZZWg79FhpA-15" value="Container&amp;nbsp;&lt;div&gt;Runtimes&lt;/div&gt;" style="rounded=0;whiteSpace=wrap;html=1;align=left;spacingTop=0;spacingRight=0;spacingLeft=15;verticalAlign=middle;fillColor=#dae8fc;strokeColor=#6c8ebf;" parent="1" vertex="1">
          <mxGeometry x="160" y="275" width="310" height="75" as="geometry" />
        </mxCell>
        <mxCell id="YAognNZvndZZWg79FhpA-18" value="Git Services" style="rounded=0;whiteSpace=wrap;html=1;align=center;spacingTop=0;spacingRight=0;spacingLeft=0;verticalAlign=top;fillColor=#dae8fc;strokeColor=#6c8ebf;" parent="1" vertex="1">
          <mxGeometry x="710" y="60" width="90" height="530" as="geometry" />
        </mxCell>
        <mxCell id="YAognNZvndZZWg79FhpA-19" value="Mehal&lt;div&gt;Clos&lt;/div&gt;" style="rounded=0;whiteSpace=wrap;html=1;fillColor=#ffe6cc;strokeColor=#d79b00;" parent="1" vertex="1">
          <mxGeometry x="720" y="100" width="70" height="60" as="geometry" />
        </mxCell>
        <mxCell id="YAognNZvndZZWg79FhpA-20" value="Github" style="rounded=0;whiteSpace=wrap;html=1;" parent="1" vertex="1">
          <mxGeometry x="720" y="170" width="70" height="60" as="geometry" />
        </mxCell>
        <mxCell id="YAognNZvndZZWg79FhpA-21" value="Gitlab" style="rounded=0;whiteSpace=wrap;html=1;" parent="1" vertex="1">
          <mxGeometry x="720" y="240" width="70" height="60" as="geometry" />
        </mxCell>
        <mxCell id="YAognNZvndZZWg79FhpA-22" value="GitTea" style="rounded=0;whiteSpace=wrap;html=1;" parent="1" vertex="1">
          <mxGeometry x="720" y="310" width="70" height="60" as="geometry" />
        </mxCell>
        <mxCell id="YAognNZvndZZWg79FhpA-24" value="SUSE" style="rounded=0;whiteSpace=wrap;html=1;" parent="1" vertex="1">
          <mxGeometry x="550" y="480" width="80" height="30" as="geometry" />
        </mxCell>
        <mxCell id="YAognNZvndZZWg79FhpA-25" value="Amrite" style="rounded=0;whiteSpace=wrap;html=1;fillColor=#ffe6cc;strokeColor=#d79b00;" parent="1" vertex="1">
          <mxGeometry x="244" y="297.5" width="100" height="30" as="geometry" />
        </mxCell>
        <mxCell id="YAognNZvndZZWg79FhpA-27" value="" style="rounded=0;whiteSpace=wrap;html=1;align=center;spacingTop=0;spacingRight=0;spacingLeft=0;fillColor=#e1d5e7;strokeColor=#9673a6;direction=south;" parent="1" vertex="1">
          <mxGeometry x="670" y="60" width="30" height="530" as="geometry" />
        </mxCell>
        <mxCell id="YAognNZvndZZWg79FhpA-28" value="Open Coras" style="rounded=0;whiteSpace=wrap;html=1;fillColor=#ffe6cc;strokeColor=#d79b00;" parent="1" vertex="1">
          <mxGeometry x="340" y="500" width="80" height="30" as="geometry" />
        </mxCell>
        <mxCell id="YAognNZvndZZWg79FhpA-29" value="RHEL" style="rounded=0;whiteSpace=wrap;html=1;" parent="1" vertex="1">
          <mxGeometry x="430" y="500" width="80" height="30" as="geometry" />
        </mxCell>
        <mxCell id="YAognNZvndZZWg79FhpA-30" value="CentOS" style="rounded=0;whiteSpace=wrap;html=1;" parent="1" vertex="1">
          <mxGeometry x="250" y="500" width="80" height="30" as="geometry" />
        </mxCell>
        <mxCell id="YAognNZvndZZWg79FhpA-31" value="Fedora" style="rounded=0;whiteSpace=wrap;html=1;" parent="1" vertex="1">
          <mxGeometry x="300" y="540" width="80" height="30" as="geometry" />
        </mxCell>
        <mxCell id="YAognNZvndZZWg79FhpA-32" value="Alma" style="rounded=0;whiteSpace=wrap;html=1;" parent="1" vertex="1">
          <mxGeometry x="390" y="540" width="80" height="30" as="geometry" />
        </mxCell>
        <mxCell id="YAognNZvndZZWg79FhpA-35" value="runc" style="rounded=0;whiteSpace=wrap;html=1;" parent="1" vertex="1">
          <mxGeometry x="355" y="297.5" width="100" height="30" as="geometry" />
        </mxCell>
        <mxCell id="YAognNZvndZZWg79FhpA-39" value="Application&amp;nbsp;&lt;div&gt;Workload&lt;/div&gt;&lt;div&gt;Managers&lt;/div&gt;" style="rounded=0;whiteSpace=wrap;html=1;align=left;spacingTop=0;spacingRight=-12;spacingLeft=15;fillColor=#dae8fc;strokeColor=#6c8ebf;" parent="1" vertex="1">
          <mxGeometry x="160" y="150" width="310" height="80" as="geometry" />
        </mxCell>
        <mxCell id="YAognNZvndZZWg79FhpA-4" value="&lt;span style=&quot;background-color: transparent; color: light-dark(rgb(0, 0, 0), rgb(255, 255, 255));&quot;&gt;Quadit&amp;nbsp;&lt;/span&gt;" style="rounded=0;whiteSpace=wrap;html=1;fillColor=#ffe6cc;strokeColor=#d79b00;" parent="1" vertex="1">
          <mxGeometry x="244" y="175" width="100" height="30" as="geometry" />
        </mxCell>
        <mxCell id="YAognNZvndZZWg79FhpA-34" value="Open Horizon" style="rounded=0;whiteSpace=wrap;html=1;" parent="1" vertex="1">
          <mxGeometry x="360" y="175" width="100" height="30" as="geometry" />
        </mxCell>
        <mxCell id="YAognNZvndZZWg79FhpA-40" value="User&lt;div&gt;Container&lt;br&gt;&lt;div&gt;Application&lt;/div&gt;&lt;/div&gt;" style="rounded=0;whiteSpace=wrap;html=1;" parent="1" vertex="1">
          <mxGeometry x="370" y="70" width="70" height="60" as="geometry" />
        </mxCell>
        <mxCell id="YAognNZvndZZWg79FhpA-41" value="Amrite WasmEdge&lt;div&gt;Workload&lt;/div&gt;" style="rounded=0;whiteSpace=wrap;html=1;fillColor=#ffe6cc;strokeColor=#d79b00;" parent="1" vertex="1">
          <mxGeometry x="250" y="70" width="70" height="60" as="geometry" />
        </mxCell>
        <mxCell id="YAognNZvndZZWg79FhpA-45" value="Podman" style="rounded=0;whiteSpace=wrap;html=1;align=center;spacingTop=0;spacingRight=0;spacingLeft=0;fillColor=#e1d5e7;strokeColor=#9673a6;" parent="1" vertex="1">
          <mxGeometry x="160" y="237" width="310" height="30" as="geometry" />
        </mxCell>
        <mxCell id="YAognNZvndZZWg79FhpA-46" value="Git Compatible Services" style="text;html=1;align=center;verticalAlign=middle;whiteSpace=wrap;rounded=0;rotation=90;" parent="1" vertex="1">
          <mxGeometry x="575" y="260" width="220" height="30" as="geometry" />
        </mxCell>
        <mxCell id="YAognNZvndZZWg79FhpA-47" value="" style="rounded=0;whiteSpace=wrap;html=1;align=center;spacingTop=0;spacingRight=0;spacingLeft=0;fillColor=#e1d5e7;strokeColor=#9673a6;direction=south;" parent="1" vertex="1">
          <mxGeometry x="120" y="60" width="30" height="530" as="geometry" />
        </mxCell>
        <mxCell id="YAognNZvndZZWg79FhpA-48" value="OCI Registries" style="text;html=1;align=center;verticalAlign=middle;whiteSpace=wrap;rounded=0;rotation=90;" parent="1" vertex="1">
          <mxGeometry x="25" y="275" width="220" height="30" as="geometry" />
        </mxCell>
        <mxCell id="YAognNZvndZZWg79FhpA-50" value="Registries" style="rounded=0;whiteSpace=wrap;html=1;align=center;spacingTop=0;spacingRight=0;spacingLeft=0;verticalAlign=top;fillColor=#dae8fc;strokeColor=#6c8ebf;" parent="1" vertex="1">
          <mxGeometry x="20" y="60" width="90" height="530" as="geometry" />
        </mxCell>
        <mxCell id="YAognNZvndZZWg79FhpA-43" value="ghcr.io" style="rounded=0;whiteSpace=wrap;html=1;" parent="1" vertex="1">
          <mxGeometry x="30" y="92.5" width="70" height="60" as="geometry" />
        </mxCell>
        <mxCell id="YAognNZvndZZWg79FhpA-51" value="docker.io" style="rounded=0;whiteSpace=wrap;html=1;" parent="1" vertex="1">
          <mxGeometry x="30" y="160" width="70" height="60" as="geometry" />
        </mxCell>
        <mxCell id="YAognNZvndZZWg79FhpA-52" value="quay.io" style="rounded=0;whiteSpace=wrap;html=1;" parent="1" vertex="1">
          <mxGeometry x="30" y="230" width="70" height="60" as="geometry" />
        </mxCell>
        <mxCell id="YAognNZvndZZWg79FhpA-57" value="Docker" style="rounded=0;whiteSpace=wrap;html=1;align=center;spacingTop=0;spacingRight=0;spacingLeft=0;fillColor=#e1d5e7;strokeColor=#9673a6;" parent="1" vertex="1">
          <mxGeometry x="480" y="237" width="180" height="30" as="geometry" />
        </mxCell>
        <mxCell id="YAognNZvndZZWg79FhpA-59" value="Open Horizon" style="rounded=0;whiteSpace=wrap;html=1;" parent="1" vertex="1">
          <mxGeometry x="520" y="175" width="100" height="30" as="geometry" />
        </mxCell>
        <mxCell id="YAognNZvndZZWg79FhpA-63" value="" style="rounded=0;whiteSpace=wrap;html=1;align=left;spacingTop=0;spacingRight=-12;spacingLeft=15;fillColor=#dae8fc;strokeColor=#6c8ebf;" parent="1" vertex="1">
          <mxGeometry x="480" y="272.5" width="180" height="80" as="geometry" />
        </mxCell>
        <mxCell id="YAognNZvndZZWg79FhpA-64" value="containerd" style="rounded=0;whiteSpace=wrap;html=1;" parent="1" vertex="1">
          <mxGeometry x="525" y="297.5" width="100" height="30" as="geometry" />
        </mxCell>
      </root>
    </mxGraphModel>
  </diagram>
</mxfile>
